<svg id="Layer_1" height="512" viewBox="0 0 512 512" width="512" xmlns="http://www.w3.org/2000/svg" data-name="Layer 1"><path d="m157 224h16v-203h-6.424-9.576z"/><path d="m130 21h17v203h-17z"/><path d="m372 76.1a30.891 30.891 0 0 1 -26.619-26.1h-106.839c-2.778 13.519-15.23 24.2-30.542 26.137v120.729a90.379 90.379 0 0 1 164-10.735zm-79.544 36.471a23.155 23.155 0 1 1 23.154-23.151 23.181 23.181 0 0 1 -23.154 23.155z"/><path d="m292.456 76.266a13.155 13.155 0 1 0 13.154 13.154 13.169 13.169 0 0 0 -13.154-13.154z"/><path d="m372 224v-6.1c-5.453-38.845-39.036-69.253-79.544-69.253a80.426 80.426 0 0 0 -80.167 75.353h13.387a66.962 66.962 0 0 1 133.558 0z"/><path d="m382.656 224h19.344v-203h-219v203h15v-152.549a5 5 0 0 1 5-5c13.8 0 25.763-9.892 26.114-21.6a5 5 0 0 1 5-4.85h115.8a5 5 0 0 1 5 4.85c.387 12.921 9.265 21.6 22.092 21.6a5 5 0 0 1 5 5v145.549c.301 2.319.521 5 .65 7z"/><path d="m292.456 171.986a57.159 57.159 0 0 0 -56.748 52.014h113.492a57.159 57.159 0 0 0 -56.744-52.014z"/><path d="m63.225 189a35.075 35.075 0 0 0 35.242 35h21.533v-70h-21.533a35.075 35.075 0 0 0 -35.242 35z"/><path d="m99.126 491h333.874v-70h-35.709a43.16 43.16 0 0 1 -18.914-4.168l-25.338-12.165a43.189 43.189 0 0 1 0-77.586l25.338-12.481a43.609 43.609 0 0 1 18.914-4.6h34.709v-76h-333.533c-14.232 0-26.467-6.58-35.467-16.887v238.193c0 19.794 16.33 35.694 36.126 35.694zm-2.126-229.237a5 5 0 0 1 10 0v6.3a5 5 0 0 1 -10 0zm0 25.3a5 5 0 0 1 10 0v96a5 5 0 0 1 -10 0z"/><path d="m449 320h-51.709a33.529 33.529 0 0 0 -14.528 3.572l-25.337 12.583a33.055 33.055 0 0 0 0 59.446l25.338 12.259a33.1 33.1 0 0 0 14.527 3.14h51.709zm-70.741 66.448a20.5 20.5 0 1 1 20.5-20.5 20.527 20.527 0 0 1 -20.5 20.5z"/><circle cx="378.259" cy="365.945" r="10.502"/></svg>